<?xml version="1.0" encoding="utf-8"?>
<!-- Generator: Adobe Illustrator 23.0.5, SVG Export Plug-In . SVG Version: 6.00 Build 0)  -->
<svg version="1.1" id="Capa_1" xmlns="http://www.w3.org/2000/svg" xmlns:xlink="http://www.w3.org/1999/xlink" x="0px" y="0px"
	 viewBox="0 0 1000 550" style="enable-background:new 0 0 1000 550;" xml:space="preserve">
<style type="text/css">
	.st0{fill:#1611EA;}
	.st1{fill:#01010C;}
</style>
<path class="st1" d="M248.91,249.29c0,0-5.57,17.57,10.29,29.14c15.86,11.57,20.14,13.29,20.14,13.29s37.29,18.43,104.57,18.43
	s106.29-6,106.29-6l61.29-11.29l10.29-1.57l16.71-2.71l16.71-4.86c0,0,87.43-22.57,109.29-46.14c0,0,12.55-6.85,12.96-19.87l-0.85-9
	l1.85,3.54l1.13,3.13l11.69,44.84l2.84,13.93l2.87,11.3c0,0,9.46,10.77,3.56,19.66c0,0-0.04,8.39-2.71,11.61l-3.93,5.11
	c0,0-13.35,11.28-17.93,13.21c0,0-0.56,3.29-11.17,6.91c0,0-10.58,10.1-26.22,11.92c0,0,0,1.93-3.11,2.57l-24.43,10.07l-5.25,2.36
	l-1.07,1.07l-12.86,5.11l-18.86,6.43l-10.71,2.75c0,0-1.31,2.02-2.92,1c0,0-5.46,3.08-17.12,3.08l-40.58,6.23l-28.21,5.06L494.7,402
	l-40.56,4.5l-36.8,0.93h-25.71l-16.71-0.96c0,0-66.05-3.38-91.61-16.55c-25.55-13.18-30.21-21.38-30.21-21.38s-6.91-4.98-9-23.63
	v-6.11l0.48-2.25l-0.48-5.63l-0.54-13.55v-12.32l0.27-11.14l0.54-10.66l0.86-11.63l1.29-10.98l1.39-10.97L248.91,249.29z"/>
</svg>
